<svg xmlns="http://www.w3.org/2000/svg" viewBox="0 0 64 64" role="img">
  <title>KI-Beratung</title>
  <style>
    path,circle,rect,ellipse{fill:none;stroke:#CBD3E0;stroke-width:1.6;stroke-linecap:round;stroke-linejoin:round}
    .g{stroke:url(#grad)}
    .cy{stroke:#F9613A}
    .vi{stroke:#D9451F}
    .thin{stroke-width:1.15}
    .dash{stroke-dasharray:2 3.2}
    .fcy{fill:#F9613A;stroke:none}
    .fvi{fill:#D9451F;stroke:none}
    .fg{fill:url(#grad);stroke:none}
    .fb{fill:#CBD3E0;stroke:none}
  </style>
  <defs>
    <linearGradient id="grad" x1="8" y1="8" x2="56" y2="56" gradientUnits="userSpaceOnUse">
      <stop offset="0" stop-color="#F9613A"/>
      <stop offset="1" stop-color="#D9451F"/>
    </linearGradient>
  </defs>
  <path d="M15 12 h24 a6 6 0 0 1 6 6 v11 a6 6 0 0 1 -6 6 h-13 l-7 7 v-7 h-4 a6 6 0 0 1 -6 -6 v-11 a6 6 0 0 1 6 -6 z"/>
        <path class="g" d="M20 18 v11 M26.5 18 l-6.5 5.5 6.5 5.5"/>
        <path class="g" d="M33 18 v11 M31 18 h4 M31 29 h4"/>
        <circle cx="52" cy="43" r="5"/>
        <path d="M49.8 48.6 h4.4 M50.6 51.2 h2.8"/>
        <path class="thin" d="M50.6 45.5 q1.4 -2 2.8 0"/>
        <path class="cy" d="M52 36 v-2.8 M45.9 40 l-2.4 -1.4 M58.1 40 l2.4 -1.4 M47.7 37.4 l-2 -2 M56.3 37.4 l2 -2"/>
        <path d="M9 29 h-4"/>
        <circle class="cy" cx="3.4" cy="29" r="1.2"/>
</svg>
